M48
; DRILL file {KiCad 9.0.7} date 2026-07-23T16:18:54+0700
; FORMAT={-:-/ absolute / metric / decimal}
; #@! TF.CreationDate,2026-07-23T16:18:54+07:00
; #@! TF.GenerationSoftware,Kicad,Pcbnew,9.0.7
; #@! TF.FileFunction,Plated,1,2,PTH
FMAT,2
METRIC
; #@! TA.AperFunction,Plated,PTH,ViaDrill
T1C0.300
; #@! TA.AperFunction,Plated,PTH,ComponentDrill
T2C0.800
; #@! TA.AperFunction,Plated,PTH,ComponentDrill
T3C1.000
; #@! TA.AperFunction,Plated,PTH,ComponentDrill
T4C1.100
; #@! TA.AperFunction,Plated,PTH,ComponentDrill
T5C1.500
%
G90
G05
T1
X50.6Y-85.5
X59.5Y-56.0
X60.2Y-86.8
X79.7Y-91.2
X83.8Y-89.8
X87.7Y-55.6
X91.1Y-63.4
X95.0Y-66.3
X110.8Y-82.4
X116.8Y-57.4
X138.6Y-46.3
T2
X136.7Y-89.8
X138.7Y-89.8
X140.7Y-89.8
T3
X47.79Y-48.35
X47.79Y-50.89
X47.79Y-53.43
X47.79Y-55.97
X47.79Y-58.51
X47.79Y-61.05
X47.79Y-63.59
X47.79Y-66.13
X47.79Y-68.67
X47.79Y-71.21
X47.79Y-73.75
X47.79Y-76.29
X47.79Y-78.83
X47.79Y-81.37
X47.79Y-83.91
X63.03Y-48.35
X63.03Y-50.89
X63.03Y-53.43
X63.03Y-55.97
X63.03Y-58.51
X63.03Y-61.05
X63.03Y-63.59
X63.03Y-66.13
X63.03Y-68.67
X63.03Y-71.21
X63.03Y-73.75
X63.03Y-76.29
X63.03Y-78.83
X63.03Y-81.37
X63.03Y-83.91
X77.0Y-81.79
X77.0Y-84.33
X77.0Y-86.87
X77.0Y-89.41
X86.89Y-44.2
X89.43Y-44.2
X91.97Y-44.2
X94.51Y-44.2
X110.7Y-87.16
X110.7Y-89.7
X125.8Y-46.36
X125.8Y-48.9
X125.8Y-51.44
X125.8Y-53.98
T4
X121.05Y-85.85
X121.05Y-90.35
X127.55Y-85.85
X127.55Y-90.35
T5
X134.6Y-89.8
X142.8Y-89.8
M30
