%TF.GenerationSoftware,KiCad,Pcbnew,9.0.7*%
%TF.CreationDate,2026-07-23T16:18:51+07:00*%
%TF.ProjectId,Luggage_Scale,4c756767-6167-4655-9f53-63616c652e6b,rev?*%
%TF.SameCoordinates,Original*%
%TF.FileFunction,Legend,Top*%
%TF.FilePolarity,Positive*%
%FSLAX46Y46*%
G04 Gerber Fmt 4.6, Leading zero omitted, Abs format (unit mm)*
G04 Created by KiCad (PCBNEW 9.0.7) date 2026-07-23 16:18:51*
%MOMM*%
%LPD*%
G01*
G04 APERTURE LIST*
%ADD10C,0.150000*%
%ADD11C,0.120000*%
G04 APERTURE END LIST*
D10*
X125466666Y-43434819D02*
X125466666Y-44149104D01*
X125466666Y-44149104D02*
X125419047Y-44291961D01*
X125419047Y-44291961D02*
X125323809Y-44387200D01*
X125323809Y-44387200D02*
X125180952Y-44434819D01*
X125180952Y-44434819D02*
X125085714Y-44434819D01*
X125895238Y-43530057D02*
X125942857Y-43482438D01*
X125942857Y-43482438D02*
X126038095Y-43434819D01*
X126038095Y-43434819D02*
X126276190Y-43434819D01*
X126276190Y-43434819D02*
X126371428Y-43482438D01*
X126371428Y-43482438D02*
X126419047Y-43530057D01*
X126419047Y-43530057D02*
X126466666Y-43625295D01*
X126466666Y-43625295D02*
X126466666Y-43720533D01*
X126466666Y-43720533D02*
X126419047Y-43863390D01*
X126419047Y-43863390D02*
X125847619Y-44434819D01*
X125847619Y-44434819D02*
X126466666Y-44434819D01*
X109914285Y-84711009D02*
X110057142Y-84758628D01*
X110057142Y-84758628D02*
X110104761Y-84806247D01*
X110104761Y-84806247D02*
X110152380Y-84901485D01*
X110152380Y-84901485D02*
X110152380Y-85044342D01*
X110152380Y-85044342D02*
X110104761Y-85139580D01*
X110104761Y-85139580D02*
X110057142Y-85187200D01*
X110057142Y-85187200D02*
X109961904Y-85234819D01*
X109961904Y-85234819D02*
X109580952Y-85234819D01*
X109580952Y-85234819D02*
X109580952Y-84234819D01*
X109580952Y-84234819D02*
X109914285Y-84234819D01*
X109914285Y-84234819D02*
X110009523Y-84282438D01*
X110009523Y-84282438D02*
X110057142Y-84330057D01*
X110057142Y-84330057D02*
X110104761Y-84425295D01*
X110104761Y-84425295D02*
X110104761Y-84520533D01*
X110104761Y-84520533D02*
X110057142Y-84615771D01*
X110057142Y-84615771D02*
X110009523Y-84663390D01*
X110009523Y-84663390D02*
X109914285Y-84711009D01*
X109914285Y-84711009D02*
X109580952Y-84711009D01*
X110438095Y-84234819D02*
X111009523Y-84234819D01*
X110723809Y-85234819D02*
X110723809Y-84234819D01*
X111866666Y-85234819D02*
X111295238Y-85234819D01*
X111580952Y-85234819D02*
X111580952Y-84234819D01*
X111580952Y-84234819D02*
X111485714Y-84377676D01*
X111485714Y-84377676D02*
X111390476Y-84472914D01*
X111390476Y-84472914D02*
X111295238Y-84520533D01*
X122966667Y-84257200D02*
X123109524Y-84304819D01*
X123109524Y-84304819D02*
X123347619Y-84304819D01*
X123347619Y-84304819D02*
X123442857Y-84257200D01*
X123442857Y-84257200D02*
X123490476Y-84209580D01*
X123490476Y-84209580D02*
X123538095Y-84114342D01*
X123538095Y-84114342D02*
X123538095Y-84019104D01*
X123538095Y-84019104D02*
X123490476Y-83923866D01*
X123490476Y-83923866D02*
X123442857Y-83876247D01*
X123442857Y-83876247D02*
X123347619Y-83828628D01*
X123347619Y-83828628D02*
X123157143Y-83781009D01*
X123157143Y-83781009D02*
X123061905Y-83733390D01*
X123061905Y-83733390D02*
X123014286Y-83685771D01*
X123014286Y-83685771D02*
X122966667Y-83590533D01*
X122966667Y-83590533D02*
X122966667Y-83495295D01*
X122966667Y-83495295D02*
X123014286Y-83400057D01*
X123014286Y-83400057D02*
X123061905Y-83352438D01*
X123061905Y-83352438D02*
X123157143Y-83304819D01*
X123157143Y-83304819D02*
X123395238Y-83304819D01*
X123395238Y-83304819D02*
X123538095Y-83352438D01*
X123871429Y-83304819D02*
X124109524Y-84304819D01*
X124109524Y-84304819D02*
X124300000Y-83590533D01*
X124300000Y-83590533D02*
X124490476Y-84304819D01*
X124490476Y-84304819D02*
X124728572Y-83304819D01*
X125061905Y-83400057D02*
X125109524Y-83352438D01*
X125109524Y-83352438D02*
X125204762Y-83304819D01*
X125204762Y-83304819D02*
X125442857Y-83304819D01*
X125442857Y-83304819D02*
X125538095Y-83352438D01*
X125538095Y-83352438D02*
X125585714Y-83400057D01*
X125585714Y-83400057D02*
X125633333Y-83495295D01*
X125633333Y-83495295D02*
X125633333Y-83590533D01*
X125633333Y-83590533D02*
X125585714Y-83733390D01*
X125585714Y-83733390D02*
X125014286Y-84304819D01*
X125014286Y-84304819D02*
X125633333Y-84304819D01*
X139356667Y-87217200D02*
X139499524Y-87264819D01*
X139499524Y-87264819D02*
X139737619Y-87264819D01*
X139737619Y-87264819D02*
X139832857Y-87217200D01*
X139832857Y-87217200D02*
X139880476Y-87169580D01*
X139880476Y-87169580D02*
X139928095Y-87074342D01*
X139928095Y-87074342D02*
X139928095Y-86979104D01*
X139928095Y-86979104D02*
X139880476Y-86883866D01*
X139880476Y-86883866D02*
X139832857Y-86836247D01*
X139832857Y-86836247D02*
X139737619Y-86788628D01*
X139737619Y-86788628D02*
X139547143Y-86741009D01*
X139547143Y-86741009D02*
X139451905Y-86693390D01*
X139451905Y-86693390D02*
X139404286Y-86645771D01*
X139404286Y-86645771D02*
X139356667Y-86550533D01*
X139356667Y-86550533D02*
X139356667Y-86455295D01*
X139356667Y-86455295D02*
X139404286Y-86360057D01*
X139404286Y-86360057D02*
X139451905Y-86312438D01*
X139451905Y-86312438D02*
X139547143Y-86264819D01*
X139547143Y-86264819D02*
X139785238Y-86264819D01*
X139785238Y-86264819D02*
X139928095Y-86312438D01*
X140261429Y-86264819D02*
X140499524Y-87264819D01*
X140499524Y-87264819D02*
X140690000Y-86550533D01*
X140690000Y-86550533D02*
X140880476Y-87264819D01*
X140880476Y-87264819D02*
X141118572Y-86264819D01*
X142023333Y-87264819D02*
X141451905Y-87264819D01*
X141737619Y-87264819D02*
X141737619Y-86264819D01*
X141737619Y-86264819D02*
X141642381Y-86407676D01*
X141642381Y-86407676D02*
X141547143Y-86502914D01*
X141547143Y-86502914D02*
X141451905Y-86550533D01*
X76666666Y-78864819D02*
X76666666Y-79579104D01*
X76666666Y-79579104D02*
X76619047Y-79721961D01*
X76619047Y-79721961D02*
X76523809Y-79817200D01*
X76523809Y-79817200D02*
X76380952Y-79864819D01*
X76380952Y-79864819D02*
X76285714Y-79864819D01*
X77619047Y-78864819D02*
X77142857Y-78864819D01*
X77142857Y-78864819D02*
X77095238Y-79341009D01*
X77095238Y-79341009D02*
X77142857Y-79293390D01*
X77142857Y-79293390D02*
X77238095Y-79245771D01*
X77238095Y-79245771D02*
X77476190Y-79245771D01*
X77476190Y-79245771D02*
X77571428Y-79293390D01*
X77571428Y-79293390D02*
X77619047Y-79341009D01*
X77619047Y-79341009D02*
X77666666Y-79436247D01*
X77666666Y-79436247D02*
X77666666Y-79674342D01*
X77666666Y-79674342D02*
X77619047Y-79769580D01*
X77619047Y-79769580D02*
X77571428Y-79817200D01*
X77571428Y-79817200D02*
X77476190Y-79864819D01*
X77476190Y-79864819D02*
X77238095Y-79864819D01*
X77238095Y-79864819D02*
X77142857Y-79817200D01*
X77142857Y-79817200D02*
X77095238Y-79769580D01*
X83964819Y-44533333D02*
X84679104Y-44533333D01*
X84679104Y-44533333D02*
X84821961Y-44580952D01*
X84821961Y-44580952D02*
X84917200Y-44676190D01*
X84917200Y-44676190D02*
X84964819Y-44819047D01*
X84964819Y-44819047D02*
X84964819Y-44914285D01*
X84298152Y-43628571D02*
X84964819Y-43628571D01*
X83917200Y-43866666D02*
X84631485Y-44104761D01*
X84631485Y-44104761D02*
X84631485Y-43485714D01*
X54695714Y-43439104D02*
X55171904Y-43439104D01*
X54600476Y-43724819D02*
X54933809Y-42724819D01*
X54933809Y-42724819D02*
X55267142Y-43724819D01*
X56124285Y-43724819D02*
X55552857Y-43724819D01*
X55838571Y-43724819D02*
X55838571Y-42724819D01*
X55838571Y-42724819D02*
X55743333Y-42867676D01*
X55743333Y-42867676D02*
X55648095Y-42962914D01*
X55648095Y-42962914D02*
X55552857Y-43010533D01*
X54148095Y-83364819D02*
X54148095Y-84174342D01*
X54148095Y-84174342D02*
X54195714Y-84269580D01*
X54195714Y-84269580D02*
X54243333Y-84317200D01*
X54243333Y-84317200D02*
X54338571Y-84364819D01*
X54338571Y-84364819D02*
X54529047Y-84364819D01*
X54529047Y-84364819D02*
X54624285Y-84317200D01*
X54624285Y-84317200D02*
X54671904Y-84269580D01*
X54671904Y-84269580D02*
X54719523Y-84174342D01*
X54719523Y-84174342D02*
X54719523Y-83364819D01*
X55148095Y-84317200D02*
X55290952Y-84364819D01*
X55290952Y-84364819D02*
X55529047Y-84364819D01*
X55529047Y-84364819D02*
X55624285Y-84317200D01*
X55624285Y-84317200D02*
X55671904Y-84269580D01*
X55671904Y-84269580D02*
X55719523Y-84174342D01*
X55719523Y-84174342D02*
X55719523Y-84079104D01*
X55719523Y-84079104D02*
X55671904Y-83983866D01*
X55671904Y-83983866D02*
X55624285Y-83936247D01*
X55624285Y-83936247D02*
X55529047Y-83888628D01*
X55529047Y-83888628D02*
X55338571Y-83841009D01*
X55338571Y-83841009D02*
X55243333Y-83793390D01*
X55243333Y-83793390D02*
X55195714Y-83745771D01*
X55195714Y-83745771D02*
X55148095Y-83650533D01*
X55148095Y-83650533D02*
X55148095Y-83555295D01*
X55148095Y-83555295D02*
X55195714Y-83460057D01*
X55195714Y-83460057D02*
X55243333Y-83412438D01*
X55243333Y-83412438D02*
X55338571Y-83364819D01*
X55338571Y-83364819D02*
X55576666Y-83364819D01*
X55576666Y-83364819D02*
X55719523Y-83412438D01*
X56481428Y-83841009D02*
X56624285Y-83888628D01*
X56624285Y-83888628D02*
X56671904Y-83936247D01*
X56671904Y-83936247D02*
X56719523Y-84031485D01*
X56719523Y-84031485D02*
X56719523Y-84174342D01*
X56719523Y-84174342D02*
X56671904Y-84269580D01*
X56671904Y-84269580D02*
X56624285Y-84317200D01*
X56624285Y-84317200D02*
X56529047Y-84364819D01*
X56529047Y-84364819D02*
X56148095Y-84364819D01*
X56148095Y-84364819D02*
X56148095Y-83364819D01*
X56148095Y-83364819D02*
X56481428Y-83364819D01*
X56481428Y-83364819D02*
X56576666Y-83412438D01*
X56576666Y-83412438D02*
X56624285Y-83460057D01*
X56624285Y-83460057D02*
X56671904Y-83555295D01*
X56671904Y-83555295D02*
X56671904Y-83650533D01*
X56671904Y-83650533D02*
X56624285Y-83745771D01*
X56624285Y-83745771D02*
X56576666Y-83793390D01*
X56576666Y-83793390D02*
X56481428Y-83841009D01*
X56481428Y-83841009D02*
X56148095Y-83841009D01*
D11*
%TO.C,J2*%
X127180000Y-47630000D02*
X127180000Y-55360000D01*
X124420000Y-55360000D02*
X127180000Y-55360000D01*
X124420000Y-47630000D02*
X127180000Y-47630000D01*
X124420000Y-47630000D02*
X124420000Y-55360000D01*
X124420000Y-46360000D02*
X124420000Y-44980000D01*
X124420000Y-44980000D02*
X125800000Y-44980000D01*
%TO.C,BT1*%
X112080000Y-88430000D02*
X112080000Y-91080000D01*
X109320000Y-91080000D02*
X112080000Y-91080000D01*
X109320000Y-88430000D02*
X112080000Y-88430000D01*
X109320000Y-88430000D02*
X109320000Y-91080000D01*
X109320000Y-87160000D02*
X109320000Y-85780000D01*
X109320000Y-85780000D02*
X110700000Y-85780000D01*
%TO.C,SW2*%
X120800000Y-87350000D02*
X120800000Y-88850000D01*
X122050000Y-91350000D02*
X126550000Y-91350000D01*
X126550000Y-84850000D02*
X122050000Y-84850000D01*
X127800000Y-88850000D02*
X127800000Y-87350000D01*
%TO.C,SW1*%
X134290000Y-87540000D02*
X143110000Y-87540000D01*
X134290000Y-87850000D02*
X134290000Y-87540000D01*
X134290000Y-92060000D02*
X134290000Y-91750000D01*
X136200000Y-86840000D02*
X136700000Y-87340000D01*
X136700000Y-87340000D02*
X137200000Y-86840000D01*
X137200000Y-86840000D02*
X136200000Y-86840000D01*
X143110000Y-87540000D02*
X143110000Y-87850000D01*
X143110000Y-92060000D02*
X134290000Y-92060000D01*
X143110000Y-92060000D02*
X143110000Y-91750000D01*
%TO.C,J5*%
X75620000Y-80410000D02*
X77000000Y-80410000D01*
X75620000Y-81790000D02*
X75620000Y-80410000D01*
X75620000Y-83060000D02*
X75620000Y-90790000D01*
X75620000Y-83060000D02*
X78380000Y-83060000D01*
X75620000Y-90790000D02*
X78380000Y-90790000D01*
X78380000Y-83060000D02*
X78380000Y-90790000D01*
%TO.C,J4*%
X85510000Y-45580000D02*
X85510000Y-44200000D01*
X86890000Y-45580000D02*
X85510000Y-45580000D01*
X88160000Y-45580000D02*
X95890000Y-45580000D01*
X88160000Y-45580000D02*
X88160000Y-42820000D01*
X95890000Y-45580000D02*
X95890000Y-42820000D01*
X88160000Y-42820000D02*
X95890000Y-42820000D01*
%TO.C,A1*%
X46390000Y-44410000D02*
X46390000Y-47080000D01*
X46390000Y-49620000D02*
X46390000Y-87850000D01*
X46390000Y-87850000D02*
X51470000Y-87850000D01*
X49060000Y-47080000D02*
X46390000Y-47080000D01*
X49060000Y-49620000D02*
X46390000Y-49620000D01*
X49060000Y-49620000D02*
X49060000Y-47080000D01*
X49060000Y-49620000D02*
X49060000Y-85180000D01*
X49060000Y-85180000D02*
X46390000Y-85180000D01*
X51470000Y-79970000D02*
X59350000Y-79970000D01*
X51470000Y-90390000D02*
X51470000Y-79970000D01*
X59350000Y-79970000D02*
X59350000Y-90390000D01*
X59350000Y-90390000D02*
X51470000Y-90390000D01*
X61760000Y-47080000D02*
X61760000Y-85180000D01*
X61760000Y-47080000D02*
X64430000Y-47080000D01*
X61760000Y-85180000D02*
X64430000Y-85180000D01*
X64430000Y-44410000D02*
X46390000Y-44410000D01*
X64430000Y-87850000D02*
X59350000Y-87850000D01*
X64430000Y-87850000D02*
X64430000Y-44410000D01*
%TD*%
M02*
